:SAMPLES-PER-SECOND 30
:FULLY-SPECIFIED
:DEGREES
13
root  34.84324057 36.55375383 -14.46298314 9.070725441 -5.012969494 3.16739583
lowerback  -8.192894936 -0.7242565155 -0.50782305
upperback  -3.923150063 -0.484604001 -3.129839897
thorax  0.5159689784 -0.08984521031 -2.987709999
lowerneck  -7.402009964 -13.04650021 -10.06569958
upperneck  13.39820004 -17.76230049 10.11130047
head  7.123740196 -8.272339821 3.117049932
lclavicle  0 -4.497500157e-015 -2.743230041e-014
lhumerus  -48.33280182 29.41040039 64.20860291
lradius  0.006001632661 -6.507048965e-006 30.22660065
lwrist  4.824992743e-007 -3.790274832e-007 -28.13209915
lhand  -4.420116695e-031 -36.97710037 -10.6882
lfingers  90 7.125020027 -90
lthumb  94.85499689 -25.52104711 101.1526354
rclavicle  0 -4.497500157e-015 -2.743230041e-014
rhumerus  -58.36420059 -41.68489838 -46.52909851
rradius  -5.16745672e-007 2.214343908e-008 35.70209885
rwrist  -2.867388866e-005 0.1128110886 -142.4100037
rhand  -1.767201528e-031 -2.46784997 -7.832709789
rfingers  -90 -7.125020027 -90
rthumb  -86.60806753 -7.850481319 -66.54259248
rfemur  -11.3823061 15.90716648 12.91859055
rtibia  -0.3112678826 -0.863611877 18.91405296
rfoot  1.217720628 -21.55217171 -35.3458786
rtoes  4.089607868 19.59419483 -102.0353759
lfemur  -6.359170914 -16.06753731 -20.81367874
ltibia  3.925093412 -0.3195356131 12.11480427
lfoot  0.552809298 -23.41872215 36.77984619
ltoes  -8.664161074 -18.09554429 -116.132542
14
root  34.84343281 36.55399713 -14.46182521 9.071967125 -5.013094425 3.187382221
lowerback  -8.191579819 -0.7324619293 -0.5069267154
upperback  -3.92050004 -0.4945699871 -3.140670061
thorax  0.5147089958 -0.09112110734 -2.997809887
lowerneck  -7.406072617 -13.06569958 -10.02700043
upperneck  13.38519955 -17.79100227 10.0994997
head  7.114458561 -8.28452301 3.107926607
lclavicle  0 -4.497500157e-015 -2.743230041e-014
lhumerus  -48.3083992 29.39900017 64.1914978
lradius  0.006001632661 -6.507048965e-006 30.22649765
lwrist  4.824992743e-007 -3.790274832e-007 -28.10000038
lhand  -4.417297195e-031 -36.92850113 -10.7020998
lfingers  90 7.125020027 -90
lthumb  94.83520666 -25.53638232 101.1020268
rclavicle  0 -4.497500157e-015 -2.743230041e-014
rhumerus  -58.18420029 -41.42340088 -46.9087944
rradius  -5.16745672e-007 2.214343908e-008 36.03110123
rwrist  -2.867388866e-005 0.1128110886 -142.7940063
rhand  -1.767294701e-031 -2.5369699 -7.936399937
rfingers  -90 -7.125020027 -90
rthumb  -86.66210853 -7.751509935 -66.61550028
rfemur  -11.38887501 15.87770081 12.89544296
rtibia  -0.3225830495 -0.9000325799 18.92133904
rfoot  1.20317018 -21.61054039 -35.35129166
rtoes  4.110411721 19.5900051 -102.0974174
lfemur  -6.378057003 -16.08774567 -20.83441734
ltibia  3.927468777 -0.3273102641 12.13452053
lfoot  0.578351438 -23.4232254 36.82260895
ltoes  -8.671041421 -18.09233415 -116.1546955
15
root  34.84389838 36.55416233 -14.46064326 9.071917534 -5.014071941 3.207376003
lowerback  -8.209959984 -0.7438880205 -0.5004820228
upperback  -3.90899992 -0.5085740089 -3.163439989
thorax  0.5356940031 -0.09215842932 -3.026530027
lowerneck  -7.409100056 -13.08030033 -9.987819672
upperneck  13.35429955 -17.81979752 10.13920021
head  7.110261917 -8.293902397 3.109582424
lclavicle  0 -4.497500157e-015 -2.743230041e-014
lhumerus  -48.26399994 29.36149979 64.18319702
lradius  0.006001632661 -6.507048965e-006 30.25610161
lwrist  4.824992743e-007 -3.790274832e-007 -28.0461998
lhand  -4.415618017e-031 -36.8995018 -10.71930027
lfingers  90 7.125020027 -90
lthumb  94.82525103 -25.5543446 101.0725427
rclavicle  0 -4.497500157e-015 -2.743230041e-014
rhumerus  -57.99420547 -41.1026001 -47.33019638
rradius  -5.16745672e-007 2.214343908e-008 36.38010025
rwrist  -2.867388866e-005 0.1128110886 -143.4900055
rhand  -1.767463151e-031 -2.657360077 -8.024319649
rfingers  -90 -7.125020027 -90
rthumb  -86.71858655 -7.664238679 -66.73734032
rfemur  -11.36219215 15.86064911 12.86864185
rtibia  -0.3205337524 -0.9518316984 18.88870811
rfoot  1.196082711 -21.69999123 -35.37182617
rtoes  4.091489529 19.59381679 -102.0409869
lfemur  -6.379345417 -16.12905312 -20.86306953
ltibia  3.941912413 -0.3404537439 12.13467312
lfoot  0.5918285251 -23.40657043 36.84937668
ltoes  -8.70464505 -18.07660984 -116.2629481
16
root  34.8482147 36.55492828 -14.45940874 9.084736824 -5.016898155 3.201210737
lowerback  -8.232858658 -0.7457338572 -0.5303922892
upperback  -3.886650085 -0.5144283772 -3.180680037
thorax  0.5716320276 -0.09256826341 -3.02779007
lowerneck  -7.408899784 -13.1104002 -9.999819756
upperneck  13.31130028 -17.8628006 10.16880035
head  7.106840134 -8.314749718 3.113559961
lclavicle  0 -4.497500157e-015 -2.743230041e-014
lhumerus  -48.16059875 29.25239944 64.26490021
lradius  0.006001632661 -6.507048965e-006 30.25989914
lwrist  4.824992743e-007 -3.790274832e-007 -27.91150093
lhand  -0 -36.88869858 -10.6729002
lfingers  90 7.125020027 -90
lthumb  94.81034016 -25.50918758 101.0567914
rclavicle  0 -4.497500157e-015 -2.743230041e-014
rhumerus  -57.76699829 -40.68610001 -47.82820129
rradius  -5.16745672e-007 2.214343908e-008 36.79109955
rwrist  -2.867388866e-005 0.1128110886 -144.3190002
rhand  -1.76731903e-031 -2.554709911 -8.057049751
rfingers  -90 -7.125020027 -90
rthumb  -86.71352048 -7.639860634 -66.63920388
rfemur  -11.34407043 15.8300581 12.85501766
rtibia  -0.3086344302 -0.9804542065 18.82536507
rfoot  1.222945929 -21.72586823 -35.34652328
rtoes  4.101608166 19.59178079 -102.0711618
lfemur  -6.474818707 -16.15992546 -20.82663345
ltibia  3.875504732 -0.3470441699 12.27113914
lfoot  0.6089649796 -23.46384621 36.85762787
ltoes  -8.757934048 -18.05151712 -116.4348035
